<svg version="1.1" id="Layer_1" xmlns="http://www.w3.org/2000/svg" xmlns:xlink="http://www.w3.org/1999/xlink" x="0px" y="0px"
	 width="100%" viewBox="0 0 777 777" enable-background="new 0 0 777 777" xml:space="preserve">
<path fill="#000000" opacity="1.000000" stroke="none" 
	d="
M368.000000,778.000000 
	C245.333328,778.000000 123.166664,778.000000 1.000000,778.000000 
	C1.000000,519.000000 1.000000,260.000000 1.000000,1.000000 
	C260.000000,1.000000 519.000000,1.000000 778.000000,1.000000 
	C778.000000,260.000000 778.000000,519.000000 778.000000,778.000000 
	C641.500000,778.000000 505.000000,778.000000 368.000000,778.000000 
M389.137787,648.944885 
	C389.664459,648.353027 390.191101,647.761169 391.569122,646.715576 
	C392.086853,646.668762 392.604553,646.621948 392.853729,647.209412 
	C393.052887,648.266052 393.252014,649.322754 393.451141,650.379395 
	C393.851532,650.375244 394.251892,650.371155 394.652283,650.367065 
	C395.539795,648.256165 396.427307,646.145325 397.638214,643.265259 
	C398.054749,646.700562 398.133942,649.212708 398.727448,651.596680 
	C399.124695,653.192383 400.252533,654.606140 401.053436,656.101318 
	C402.510254,655.038452 403.967102,653.975586 405.880249,652.506226 
	C406.583557,650.995605 407.286835,649.484985 408.688202,647.919006 
	C409.054688,648.206360 409.421143,648.493652 410.045654,649.448547 
	C411.369293,649.667114 412.692902,649.885681 414.693695,649.984009 
	C419.110931,645.437744 422.850830,640.462891 425.233978,634.629639 
	C424.870178,634.374695 424.506378,634.119751 424.142578,633.864868 
	C420.756775,638.556824 417.371002,643.248840 413.185120,647.770081 
	C413.456726,645.179993 413.728333,642.589966 414.750580,639.869751 
	C418.761627,638.977173 418.271027,635.929810 418.265991,632.461853 
	C418.150146,632.303162 418.034302,632.144409 418.169769,631.595215 
	C416.999023,631.684021 415.828278,631.772888 414.046478,632.096375 
	C410.205048,638.823486 406.363617,645.550598 402.357147,652.566772 
	C401.748657,651.405579 401.377075,650.696472 401.055634,649.073730 
	C400.844482,646.675049 400.633301,644.276428 401.137360,641.783997 
	C402.591095,640.487305 404.471893,639.431152 405.376648,637.825134 
	C406.253357,636.269043 406.126770,634.147644 406.440887,632.274536 
	C404.665802,632.868530 402.890686,633.462524 400.727234,634.212585 
	C400.440033,634.308655 400.248138,634.500183 400.057312,634.886719 
	C400.057312,634.886719 400.193542,634.873413 399.942719,634.150024 
	C400.124969,629.377930 402.924469,626.227173 407.032227,623.302063 
	C407.424622,622.652527 407.817017,622.003052 408.250458,621.265869 
	C408.250458,621.265869 408.315582,621.194275 408.914429,620.876526 
	C409.265594,618.797913 409.616760,616.719360 409.967926,614.640808 
	C408.012482,615.111389 406.057007,615.581970 403.558380,616.471497 
	C402.525177,618.336121 401.341919,620.134583 400.485443,622.077087 
	C397.270569,629.368469 394.162292,636.706970 390.470154,644.333252 
	C389.838531,645.150635 389.206940,645.968018 388.028412,646.699463 
	C387.790680,646.933777 387.552979,647.168091 387.267853,647.552673 
	C387.267853,647.552673 387.206757,647.406921 387.479340,646.734070 
	C388.870392,641.736023 390.261444,636.738037 391.914764,631.417175 
	C391.602966,630.915161 391.291168,630.413208 390.281128,629.743835 
	C388.849426,631.182678 387.417755,632.621582 385.863586,633.445129 
	C384.075378,633.220154 382.287170,632.995178 379.906250,633.015747 
	C377.885559,635.607178 375.864868,638.198608 373.248260,641.131775 
	C371.158630,642.768005 369.069031,644.404236 367.058502,645.250366 
	C368.027161,639.897705 368.607056,634.395630 372.736938,629.389893 
	C373.014679,631.583374 373.179901,632.888184 373.345123,634.193054 
	C373.988556,634.161621 374.632019,634.130249 375.275482,634.098816 
	C375.158264,631.642029 376.009918,628.084473 374.725433,626.953796 
	C371.910461,624.476013 369.427155,627.110596 368.047668,629.677979 
	C366.577148,632.414795 365.691742,635.466003 364.194305,638.710999 
	C364.123871,639.475525 364.053406,640.240112 363.742798,641.830994 
	C363.534363,647.758423 363.534363,647.758423 366.700684,648.249329 
	C366.700684,648.249329 366.790283,648.151489 366.613739,649.021301 
	C367.141479,649.119141 367.669189,649.216919 368.902557,649.259399 
	C371.309387,647.356750 373.716217,645.454163 376.553436,644.166321 
	C378.027588,644.093201 379.501740,644.020142 381.799561,643.571777 
	C382.736938,644.945068 383.674316,646.318420 384.945160,648.302307 
	C385.552521,648.585876 386.159851,648.869507 387.130127,649.404541 
	C387.533020,649.291626 387.935913,649.178711 389.137787,648.944885 
M327.496063,646.424316 
	C327.315155,646.314941 327.134247,646.205627 326.958038,645.198120 
	C327.212708,640.277771 327.467346,635.357422 327.721985,630.437073 
	C327.236176,630.365845 326.750366,630.294556 326.264557,630.223328 
	C325.842316,631.147522 325.420044,632.071777 324.116669,633.465881 
	C321.036560,633.748047 317.956451,634.030273 314.990906,633.516663 
	C315.692169,632.363647 316.393463,631.210632 317.094757,630.057617 
	C316.760162,629.681396 316.425568,629.305115 316.090942,628.928894 
	C314.023193,630.286194 311.955414,631.643494 309.597443,632.211365 
	C309.894653,626.588074 313.558350,621.324097 311.322845,615.366760 
	C307.127960,626.695435 304.026031,638.243652 303.134491,650.279114 
	C303.062347,651.253174 304.831421,652.363586 305.318420,652.921875 
	C306.346130,649.706848 307.157410,647.168884 308.690979,644.847717 
	C310.463348,645.909058 312.235687,646.970398 314.087433,648.727112 
	C315.439484,649.716675 316.791565,650.706238 318.851807,652.214050 
	C319.037018,648.959961 319.175415,646.528625 319.077637,643.340149 
	C319.077637,641.000244 319.077637,638.660400 319.077637,635.970947 
	C320.582550,635.970947 322.344879,635.970947 324.125061,636.840149 
	C324.002258,640.479248 323.670013,644.129578 323.865601,647.751526 
	C323.938080,649.094299 325.249481,650.370178 325.995880,651.676575 
	C327.030670,650.574829 328.065460,649.473145 329.566986,648.110657 
	C329.862915,647.269775 330.158844,646.428833 330.899200,645.017151 
	C332.554352,639.939331 335.381134,635.124268 335.605774,629.725708 
	C334.925690,629.537292 334.245636,629.348938 333.565552,629.160583 
	C332.012512,634.090393 330.459473,639.020142 328.522003,644.406860 
	C328.367218,644.981201 328.212402,645.555542 327.496063,646.424316 
M344.359924,645.009460 
	C346.688782,641.597534 349.017609,638.185608 351.346466,634.773621 
	C350.688629,634.378052 350.030823,633.982422 349.372986,633.586792 
	C346.965729,637.403687 344.558502,641.220581 341.507080,645.754089 
	C341.693237,646.265320 341.879395,646.776611 342.065582,647.287842 
	C342.634308,646.596802 343.203003,645.905762 344.359924,645.009460 
M337.926636,647.462219 
	C337.880035,647.297485 337.833405,647.132690 338.142059,646.502136 
	C338.022217,646.347961 337.902344,646.193787 337.734009,645.500549 
	C337.752106,645.321045 337.770172,645.141479 338.224030,644.364380 
	C338.789886,642.818542 339.355743,641.272766 340.611908,639.835693 
	C341.963715,638.697083 343.715637,637.790161 344.548798,636.351318 
	C345.300751,635.052612 345.047516,633.171875 345.237579,631.547791 
	C343.445587,631.676086 341.653564,631.804382 339.276581,632.274597 
	C335.166779,637.529663 333.661682,643.365234 335.376709,650.689209 
	C337.563324,650.094543 339.581146,649.545837 341.598999,648.997131 
	C341.468964,648.482971 341.338928,647.968872 341.208893,647.454712 
	C340.171082,647.618896 339.133301,647.783142 337.926636,647.462219 
M351.835236,261.503784 
	C352.008453,261.782501 352.181702,262.061249 352.293182,263.082489 
	C351.978699,264.200806 351.686096,265.325806 351.346527,266.436462 
	C345.086975,286.909973 338.523193,307.296967 332.674683,327.887146 
	C329.390137,339.450562 328.159424,351.447571 329.422424,363.514465 
	C330.469696,373.519928 338.756104,379.545624 345.654175,375.086090 
	C354.304779,369.493561 356.509094,359.859985 359.324921,350.552856 
	C357.283478,351.054993 355.736115,352.015869 354.867889,353.402130 
	C352.576416,357.060730 350.917542,361.155243 348.358917,364.594238 
	C346.303467,367.356873 343.300140,369.414276 340.717438,371.784637 
	C339.724121,368.260406 337.857147,364.728638 337.887604,361.213287 
	C338.025146,345.330353 340.953552,329.827423 345.404999,314.596069 
	C350.067017,298.644135 354.784027,282.705994 359.180481,266.680481 
	C360.126740,263.231323 360.361298,259.353455 359.852264,255.827774 
	C359.556458,253.778717 357.436829,251.518066 355.525757,250.385117 
	C354.621918,249.849289 351.896179,251.360931 350.675934,252.609497 
	C348.491547,254.844666 346.383636,257.366364 345.010315,260.146881 
	C337.872101,274.599182 330.951538,289.159363 324.006439,303.706482 
	C320.843567,310.331360 317.798767,317.012634 314.700439,323.668304 
	C314.188538,323.481262 313.676666,323.294220 313.164764,323.107178 
	C314.527924,316.013458 316.109253,308.952301 317.175018,301.814178 
	C317.849579,297.296295 318.602112,292.505432 317.783264,288.124115 
	C316.843079,283.093597 311.198029,282.190002 307.760773,285.990356 
	C306.656311,287.211487 305.602386,288.594269 304.947754,290.088226 
	C298.816742,304.079437 292.777527,318.110901 286.185608,331.351929 
	C285.988708,331.108246 285.791809,330.864532 285.629730,329.790283 
	C285.961639,327.323608 286.124786,324.820190 286.652710,322.396240 
	C290.222748,306.005066 293.980682,289.653687 297.390991,273.229889 
	C298.010803,270.244965 300.727875,265.678192 295.534973,264.382629 
	C290.808380,263.203400 290.663239,268.271790 289.945038,271.000671 
	C283.819031,294.277466 276.921265,317.412994 274.715424,341.526581 
	C274.201233,347.147797 273.915436,352.882172 274.496094,358.463440 
	C274.712128,360.539886 277.364349,363.089813 279.520538,364.067078 
	C282.753723,365.532471 283.608917,362.408691 284.312347,359.983246 
	C286.206024,353.453827 287.688995,346.779877 289.987885,340.398529 
	C295.097656,326.214630 300.567871,312.159607 306.011597,298.098663 
	C306.554474,296.696381 307.925049,295.614563 308.911499,294.384003 
	C308.104919,303.757843 306.004242,312.428955 304.476868,321.199921 
	C303.718384,325.555328 303.432129,330.182373 304.090240,334.510468 
	C304.392731,336.499603 307.237549,338.853882 309.399628,339.522522 
	C310.667755,339.914703 313.115906,337.552643 314.558014,335.990723 
	C315.747101,334.702820 316.282898,332.790070 317.030457,331.119446 
	C325.041229,313.217163 332.839081,295.215668 341.146973,277.452606 
	C343.921143,271.521088 347.988800,266.194519 351.835236,261.503784 
M340.224487,431.735016 
	C319.635773,426.319427 302.195190,417.692444 300.365997,392.947449 
	C300.309814,392.187500 299.038513,391.517365 298.333710,390.805359 
	C297.598175,391.676697 296.230682,392.541626 296.221802,393.420319 
	C296.085815,406.861786 296.127106,420.305054 296.127106,433.091125 
	C304.050629,435.193420 311.404999,436.677795 318.438263,439.096130 
	C342.067841,447.220947 365.851685,449.841919 390.583313,444.272736 
	C421.263763,437.363953 445.850677,414.572296 447.333984,381.765137 
	C448.289703,360.626770 441.662628,342.978912 425.711182,329.000458 
	C415.695404,320.223480 404.006866,314.370758 391.639984,309.651611 
	C380.858948,305.537598 370.208496,301.081360 359.017944,296.582428 
	C359.017944,304.791473 359.209900,312.283478 358.925934,319.757416 
	C358.808044,322.861938 360.134827,324.123688 362.664612,325.199280 
	C372.294983,329.293945 382.063232,333.132416 391.413940,337.799866 
	C403.749725,343.957367 414.207886,352.589996 418.870178,366.046082 
	C425.377441,384.826965 417.799377,408.658020 401.861389,420.725861 
	C383.543182,434.595978 362.791443,436.138306 340.224487,431.735016 
M426.855560,233.059113 
	C426.855560,221.463669 426.855560,209.868225 426.855560,198.918671 
	C417.971497,197.334290 409.769196,196.069427 401.654602,194.382614 
	C385.419922,191.007797 369.104431,188.839142 352.557495,191.293991 
	C326.774384,195.119095 305.585938,205.935333 294.586639,231.196381 
	C290.841248,239.798096 289.539551,248.922974 290.642303,258.338684 
	C299.511627,258.338684 307.907898,258.338684 316.539429,258.338684 
	C316.539429,256.322479 316.566437,254.687546 316.535400,253.053711 
	C315.995117,224.596756 333.851013,204.885773 362.225769,204.053207 
	C373.595184,203.719604 385.180450,205.075989 396.413269,207.084702 
	C413.102020,210.069077 419.519806,217.534683 422.397400,234.246948 
	C422.594177,235.389801 423.827362,236.354202 424.578522,237.401611 
	C425.337189,236.244598 426.095886,235.087601 426.855560,233.059113 
M417.910370,577.495056 
	C417.899963,569.330872 417.803528,561.165344 417.934204,553.003418 
	C417.970917,550.709045 418.674469,548.425293 419.074432,546.123352 
	C411.868988,545.255737 411.848602,545.247192 409.052643,551.929199 
	C406.677948,557.604431 404.384766,563.313904 402.005402,568.987244 
	C399.609497,574.700195 397.151794,580.387329 394.441589,586.741211 
	C389.113678,574.386841 383.792419,562.943359 379.286011,551.187500 
	C377.293915,545.990784 374.550751,544.856934 369.688232,546.248779 
	C372.000702,550.852417 371.853241,591.690918 369.520935,596.182495 
	C371.956024,596.182495 374.284180,596.182495 375.325409,596.182495 
	C374.191498,583.251038 374.999512,570.636963 374.728607,558.048096 
	C375.172974,557.990234 375.617310,557.932434 376.061646,557.874634 
	C381.514954,570.745972 386.968262,583.617371 392.872925,597.554016 
	C399.338257,582.635010 405.310791,568.853210 411.283325,555.071350 
	C411.643341,568.991699 413.007965,582.657166 411.415344,596.235229 
	C413.692108,596.235229 416.728149,596.235229 420.003448,596.235229 
	C416.319489,590.390320 418.528839,584.291748 417.910370,577.495056 
M202.326935,559.625183 
	C200.206085,566.128479 198.085236,572.631836 195.964386,579.135193 
	C195.424240,579.104919 194.884094,579.074707 194.343964,579.044495 
	C191.742874,570.406494 189.048935,561.794617 186.606232,553.112061 
	C185.998047,550.950317 186.201340,548.560303 186.017365,546.082642 
	C183.634598,546.082642 180.571671,546.082642 178.243652,546.082642 
	C183.458847,562.518555 188.652130,578.885437 194.225403,596.449890 
	C198.339432,583.821899 201.990356,572.615356 205.641296,561.408813 
	C205.988541,561.491821 206.335785,561.574829 206.683044,561.657837 
	C210.204315,572.853088 213.725601,584.048340 217.246872,595.243591 
	C217.695297,595.145691 218.143707,595.047852 218.592117,594.949951 
	C221.761520,584.114380 224.843979,573.252380 228.136292,562.454285 
	C229.833969,556.886292 231.904816,551.432068 233.792007,545.970032 
	C232.521347,545.970032 230.306686,545.970032 228.904541,545.970032 
	C227.887146,558.130859 222.402679,568.490967 218.280136,579.352661 
	C214.748413,568.358093 211.216690,557.363464 207.321808,545.238342 
	C205.528152,550.505859 204.097122,554.708435 202.326935,559.625183 
M553.823547,550.559021 
	C551.809143,546.179138 548.602051,544.646790 545.281799,545.822449 
	C546.060791,563.025146 546.363159,579.611938 545.074829,596.385315 
	C545.304199,596.396362 546.440979,596.514038 547.574402,596.487305 
	C548.618530,596.462646 549.659058,596.282654 549.230591,596.328552 
	C548.424622,582.260437 549.051880,568.687378 548.805481,553.808228 
	C550.104492,555.317688 550.557922,555.725281 550.867920,556.222290 
	C558.519775,568.491516 566.223511,580.729431 573.747742,593.076660 
	C575.580566,596.084229 577.498596,597.527405 581.136047,595.571899 
	C581.136047,582.090210 581.068237,568.631348 581.187988,555.174194 
	C581.214905,552.146057 581.896423,549.123779 582.288086,546.007324 
	C580.512207,546.007324 578.276184,546.007324 576.951294,546.007324 
	C578.740540,559.487122 577.334778,572.807251 577.859985,586.084778 
	C577.400085,586.186890 576.940247,586.289001 576.480408,586.391113 
	C569.047180,574.658997 561.614014,562.926880 553.823547,550.559021 
M453.506714,544.927429 
	C452.676758,544.967102 451.845184,544.985596 451.017120,545.049683 
	C439.179688,545.965515 429.528809,554.686462 427.311371,566.463745 
	C425.124268,578.079895 431.268402,590.510986 441.752838,595.006592 
	C454.059906,600.283630 465.203064,595.981750 472.975830,587.277588 
	C480.107178,579.291748 480.945679,569.532776 476.668579,559.771729 
	C472.477142,550.206177 464.690948,545.484192 453.506714,544.927429 
M493.246338,551.738342 
	C481.493225,563.565613 481.412048,580.287231 493.658417,590.876831 
	C505.769196,601.349182 520.733215,598.387634 531.463928,586.280334 
	C539.655151,577.038269 538.282349,561.326660 529.183960,552.152283 
	C519.972656,542.864014 505.053345,542.487244 493.246338,551.738342 
M265.727936,593.104309 
	C259.956726,593.104309 254.185501,593.104309 248.288025,593.104309 
	C248.288025,585.556519 248.288025,578.300598 248.288025,570.528687 
	C254.221863,571.699707 260.539398,568.143555 265.478333,573.709656 
	C265.478333,570.844482 265.478333,568.127014 265.478333,565.190918 
	C259.923096,569.933838 253.989868,567.235535 248.415131,567.671753 
	C248.415131,561.018005 248.415131,554.955383 248.415131,548.335449 
	C255.433228,550.474670 263.236847,545.444641 269.225159,552.783508 
	C269.225159,550.368286 269.225159,548.312378 269.225159,546.150146 
	C259.620667,546.150146 250.233078,546.150146 242.254822,546.150146 
	C242.456070,554.710815 242.810181,563.018616 242.802002,571.325989 
	C242.793823,579.611938 242.422546,587.897400 242.212173,596.116577 
	C251.180878,596.116577 261.077545,596.116577 271.034851,596.116577 
	C271.034851,593.188293 271.034851,590.650330 271.034851,588.064453 
	C269.389618,589.873291 267.980255,591.422791 265.727936,593.104309 
M298.197479,567.778625 
	C293.921356,567.778625 289.645233,567.778625 285.213257,567.778625 
	C285.213257,561.237915 285.213257,555.162476 285.213257,548.442871 
	C292.181946,550.373840 299.945129,545.550903 305.675598,552.331177 
	C305.675598,550.308777 305.675598,548.141663 305.675598,546.220581 
	C296.072479,546.220581 286.848724,546.220581 278.958282,546.220581 
	C279.638824,563.064148 280.078217,579.531372 278.622070,596.253174 
	C287.742493,596.253174 297.645752,596.253174 307.774658,596.253174 
	C307.774658,593.570984 307.774658,591.047913 307.774658,587.980591 
	C301.701324,597.652405 292.767609,591.231018 285.353271,593.649353 
	C285.353271,585.575012 285.353271,578.205933 285.353271,570.364502 
	C291.132111,571.956238 297.443848,567.881653 302.251770,574.108032 
	C302.251770,570.921814 302.251770,568.195740 302.251770,564.981750 
	C300.902344,566.023743 299.953705,566.756226 298.197479,567.778625 
M167.153976,552.730286 
	C167.258942,553.034546 167.341339,553.349854 167.481262,553.637085 
	C167.529419,553.735962 167.721069,553.764954 167.847183,553.825867 
	C168.222809,551.563721 168.598434,549.301575 169.083862,546.378174 
	C163.619247,545.888123 158.998276,544.957092 154.434799,545.183777 
	C147.309967,545.537537 142.089752,550.203918 141.217178,555.998291 
	C140.239029,562.493652 143.173798,566.864807 150.515472,570.079834 
	C154.621628,571.877991 158.755051,573.653687 162.700287,575.767822 
	C166.303726,577.698792 167.703537,581.032532 167.047897,585.064819 
	C166.397614,589.064087 164.018478,592.015381 160.097244,592.653137 
	C154.647354,593.539490 149.074127,593.667480 144.386765,594.051819 
	C146.107635,594.552673 148.688828,595.119812 151.130692,596.051880 
	C156.763702,598.202332 164.891724,596.563904 168.972153,592.279663 
	C175.502121,585.423523 173.955261,575.278259 165.496048,570.822083 
	C160.799576,568.348022 155.673538,566.664978 151.067200,564.050781 
	C145.740967,561.028137 145.388306,553.993103 149.964828,550.100281 
	C154.241272,546.462646 163.229523,547.489685 167.153976,552.730286 
M330.828796,561.504883 
	C330.828796,557.379883 330.828796,553.254883 330.828796,548.708557 
	C336.145630,549.356506 341.931549,546.512390 344.711884,554.071411 
	C344.711884,550.802673 344.711884,548.388550 344.711884,546.194580 
	C333.154724,546.194580 321.937988,546.194580 310.850647,546.194580 
	C310.850647,549.003479 310.850647,551.365417 310.850647,554.394104 
	C314.626007,548.318970 315.234009,548.117920 325.076447,549.282776 
	C325.076447,562.041870 325.149780,574.842224 325.019409,587.640564 
	C324.990662,590.466919 324.240631,593.285950 323.803375,596.238770 
	C326.370789,596.238770 329.428253,596.238770 331.477051,596.238770 
	C331.254211,590.488098 330.955719,584.995239 330.852081,579.498779 
	C330.745300,573.835876 330.828339,568.169312 330.828796,561.504883 
z"/>
<path fill="#F8F8F8" opacity="1.000000" stroke="none" 
	d="
M340.641541,431.827759 
	C362.791443,436.138306 383.543182,434.595978 401.861389,420.725861 
	C417.799377,408.658020 425.377441,384.826965 418.870178,366.046082 
	C414.207886,352.589996 403.749725,343.957367 391.413940,337.799866 
	C382.063232,333.132416 372.294983,329.293945 362.664612,325.199280 
	C360.134827,324.123688 358.808044,322.861938 358.925934,319.757416 
	C359.209900,312.283478 359.017944,304.791473 359.017944,296.582428 
	C370.208496,301.081360 380.858948,305.537598 391.639984,309.651611 
	C404.006866,314.370758 415.695404,320.223480 425.711182,329.000458 
	C441.662628,342.978912 448.289703,360.626770 447.333984,381.765137 
	C445.850677,414.572296 421.263763,437.363953 390.583313,444.272736 
	C365.851685,449.841919 342.067841,447.220947 318.438263,439.096130 
	C311.404999,436.677795 304.050629,435.193420 296.127106,433.091125 
	C296.127106,420.305054 296.085815,406.861786 296.221802,393.420319 
	C296.230682,392.541626 297.598175,391.676697 298.333710,390.805359 
	C299.038513,391.517365 300.309814,392.187500 300.365997,392.947449 
	C302.195190,417.692444 319.635773,426.319427 340.641541,431.827759 
z"/>
<path fill="#ECECEC" opacity="1.000000" stroke="none" 
	d="
M286.711792,332.130737 
	C292.777527,318.110901 298.816742,304.079437 304.947754,290.088226 
	C305.602386,288.594269 306.656311,287.211487 307.760773,285.990356 
	C311.198029,282.190002 316.843079,283.093597 317.783264,288.124115 
	C318.602112,292.505432 317.849579,297.296295 317.175018,301.814178 
	C316.109253,308.952301 314.527924,316.013458 313.164764,323.107178 
	C313.676666,323.294220 314.188538,323.481262 314.700439,323.668304 
	C317.798767,317.012634 320.843567,310.331360 324.006439,303.706482 
	C330.951538,289.159363 337.872101,274.599182 345.010315,260.146881 
	C346.383636,257.366364 348.491547,254.844666 350.675934,252.609497 
	C351.896179,251.360931 354.621918,249.849289 355.525757,250.385117 
	C357.436829,251.518066 359.556458,253.778717 359.852264,255.827774 
	C360.361298,259.353455 360.126740,263.231323 359.180481,266.680481 
	C354.784027,282.705994 350.067017,298.644135 345.404999,314.596069 
	C340.953552,329.827423 338.025146,345.330353 337.887604,361.213287 
	C337.857147,364.728638 339.724121,368.260406 340.717468,371.784668 
	C343.300140,369.414276 346.303467,367.356873 348.358917,364.594238 
	C350.917542,361.155243 352.576416,357.060730 354.867889,353.402130 
	C355.736115,352.015869 357.283478,351.054993 359.324921,350.552856 
	C356.509094,359.859985 354.304779,369.493561 345.654175,375.086090 
	C338.756104,379.545624 330.469696,373.519928 329.422424,363.514465 
	C328.159424,351.447571 329.390137,339.450562 332.674683,327.887146 
	C338.523193,307.296967 345.086975,286.909973 351.346527,266.436462 
	C351.686096,265.325806 351.978699,264.200806 352.586090,262.514404 
	C352.745361,261.215302 352.611694,260.484253 352.478058,259.753204 
	C352.140411,260.032593 351.802765,260.312012 351.465149,260.591431 
	C347.988800,266.194519 343.921143,271.521088 341.146973,277.452606 
	C332.839081,295.215668 325.041229,313.217163 317.030457,331.119446 
	C316.282898,332.790070 315.747101,334.702820 314.558014,335.990723 
	C313.115906,337.552643 310.667755,339.914703 309.399628,339.522522 
	C307.237549,338.853882 304.392731,336.499603 304.090240,334.510468 
	C303.432129,330.182373 303.718384,325.555328 304.476868,321.199921 
	C306.004242,312.428955 308.104919,303.757843 308.911499,294.384003 
	C307.925049,295.614563 306.554474,296.696381 306.011597,298.098663 
	C300.567871,312.159607 295.097656,326.214630 289.987885,340.398529 
	C287.688995,346.779877 286.206024,353.453827 284.312347,359.983246 
	C283.608917,362.408691 282.753723,365.532471 279.520538,364.067078 
	C277.364349,363.089813 274.712128,360.539886 274.496094,358.463440 
	C273.915436,352.882172 274.201233,347.147797 274.715424,341.526581 
	C276.921265,317.412994 283.819031,294.277466 289.945038,271.000671 
	C290.663239,268.271790 290.808380,263.203400 295.534973,264.382629 
	C300.727875,265.678192 298.010803,270.244965 297.390991,273.229889 
	C293.980682,289.653687 290.222748,306.005066 286.652710,322.396240 
	C286.124786,324.820190 285.961639,327.323608 285.379425,330.528534 
	C285.129120,332.800018 285.129120,334.333252 285.129120,335.866455 
	C285.322021,335.906738 285.514954,335.947021 285.707855,335.987305 
	C286.042511,334.701782 286.377167,333.416260 286.711792,332.130737 
z"/>
<path fill="#F4F4F4" opacity="1.000000" stroke="none" 
	d="
M426.855072,233.494858 
	C426.095886,235.087601 425.337189,236.244598 424.578522,237.401611 
	C423.827362,236.354202 422.594177,235.389801 422.397400,234.246948 
	C419.519806,217.534683 413.102020,210.069077 396.413269,207.084702 
	C385.180450,205.075989 373.595184,203.719604 362.225769,204.053207 
	C333.851013,204.885773 315.995117,224.596756 316.535400,253.053711 
	C316.566437,254.687546 316.539429,256.322479 316.539429,258.338684 
	C307.907898,258.338684 299.511627,258.338684 290.642303,258.338684 
	C289.539551,248.922974 290.841248,239.798096 294.586639,231.196381 
	C305.585938,205.935333 326.774384,195.119095 352.557495,191.293991 
	C369.104431,188.839142 385.419922,191.007797 401.654602,194.382614 
	C409.769196,196.069427 417.971497,197.334290 426.855560,198.918671 
	C426.855560,209.868225 426.855560,221.463669 426.855072,233.494858 
z"/>
<path fill="#DEDEDE" opacity="1.000000" stroke="none" 
	d="
M417.910370,577.993774 
	C418.528839,584.291748 416.319489,590.390320 420.003448,596.235229 
	C416.728149,596.235229 413.692108,596.235229 411.415344,596.235229 
	C413.007965,582.657166 411.643341,568.991699 411.283325,555.071350 
	C405.310791,568.853210 399.338257,582.635010 392.872925,597.554016 
	C386.968262,583.617371 381.514954,570.745972 376.061646,557.874634 
	C375.617310,557.932434 375.172974,557.990234 374.728607,558.048096 
	C374.999512,570.636963 374.191498,583.251038 375.325409,596.182495 
	C374.284180,596.182495 371.956024,596.182495 369.520935,596.182495 
	C371.853241,591.690918 372.000702,550.852417 369.688232,546.248779 
	C374.550751,544.856934 377.293915,545.990784 379.286011,551.187500 
	C383.792419,562.943359 389.113678,574.386841 394.441589,586.741211 
	C397.151794,580.387329 399.609497,574.700195 402.005402,568.987244 
	C404.384766,563.313904 406.677948,557.604431 409.052643,551.929199 
	C411.848602,545.247192 411.868988,545.255737 419.074432,546.123352 
	C418.674469,548.425293 417.970917,550.709045 417.934204,553.003418 
	C417.803528,561.165344 417.899963,569.330872 417.910370,577.993774 
z"/>
<path fill="#E3E3E3" opacity="1.000000" stroke="none" 
	d="
M202.496521,559.268066 
	C204.097122,554.708435 205.528152,550.505859 207.321808,545.238342 
	C211.216690,557.363464 214.748413,568.358093 218.280136,579.352661 
	C222.402679,568.490967 227.887146,558.130859 228.904541,545.970032 
	C230.306686,545.970032 232.521347,545.970032 233.792007,545.970032 
	C231.904816,551.432068 229.833969,556.886292 228.136292,562.454285 
	C224.843979,573.252380 221.761520,584.114380 218.592117,594.949951 
	C218.143707,595.047852 217.695297,595.145691 217.246872,595.243591 
	C213.725601,584.048340 210.204315,572.853088 206.683044,561.657837 
	C206.335785,561.574829 205.988541,561.491821 205.641296,561.408813 
	C201.990356,572.615356 198.339432,583.821899 194.225403,596.449890 
	C188.652130,578.885437 183.458847,562.518555 178.243652,546.082642 
	C180.571671,546.082642 183.634598,546.082642 186.017365,546.082642 
	C186.201340,548.560303 185.998047,550.950317 186.606232,553.112061 
	C189.048935,561.794617 191.742874,570.406494 194.343964,579.044495 
	C194.884094,579.074707 195.424240,579.104919 195.964386,579.135193 
	C198.085236,572.631836 200.206085,566.128479 202.496521,559.268066 
z"/>
<path fill="#E0E0E0" opacity="1.000000" stroke="none" 
	d="
M554.002197,550.876892 
	C561.614014,562.926880 569.047180,574.658997 576.480408,586.391113 
	C576.940247,586.289001 577.400085,586.186890 577.859985,586.084778 
	C577.334778,572.807251 578.740540,559.487122 576.951294,546.007324 
	C578.276184,546.007324 580.512207,546.007324 582.288086,546.007324 
	C581.896423,549.123779 581.214905,552.146057 581.187988,555.174194 
	C581.068237,568.631348 581.136047,582.090210 581.136047,595.571899 
	C577.498596,597.527405 575.580566,596.084229 573.747742,593.076660 
	C566.223511,580.729431 558.519775,568.491516 550.867920,556.222290 
	C550.557922,555.725281 550.104492,555.317688 548.805481,553.808228 
	C549.051880,568.687378 548.424622,582.260437 549.230591,596.328552 
	C549.659058,596.282654 548.618530,596.462646 547.574402,596.487305 
	C546.440979,596.514038 545.304199,596.396362 545.074829,596.385315 
	C546.363159,579.611938 546.060791,563.025146 545.281799,545.822449 
	C548.602051,544.646790 551.809143,546.179138 554.002197,550.876892 
z"/>
<path fill="#E5E5E5" opacity="1.000000" stroke="none" 
	d="
M453.911652,544.939453 
	C464.690948,545.484192 472.477142,550.206177 476.668579,559.771729 
	C480.945679,569.532776 480.107178,579.291748 472.975830,587.277588 
	C465.203064,595.981750 454.059906,600.283630 441.752838,595.006592 
	C431.268402,590.510986 425.124268,578.079895 427.311371,566.463745 
	C429.528809,554.686462 439.179688,545.965515 451.017120,545.049683 
	C451.845184,544.985596 452.676758,544.967102 453.911652,544.939453 
M433.837891,562.794617 
	C431.055756,573.641846 434.113922,583.706726 442.012268,589.697632 
	C448.095062,594.311462 456.997650,595.532043 462.040222,592.102478 
	C468.989594,587.375977 473.214081,580.991394 473.506561,572.275146 
	C473.859039,561.771790 466.040955,550.523560 456.645050,548.338257 
	C447.131439,546.125610 438.536530,551.337158 433.837891,562.794617 
z"/>
<path fill="#E7E7E7" opacity="1.000000" stroke="none" 
	d="
M493.507446,551.498169 
	C505.053345,542.487244 519.972656,542.864014 529.183960,552.152283 
	C538.282349,561.326660 539.655151,577.038269 531.463928,586.280334 
	C520.733215,598.387634 505.769196,601.349182 493.658417,590.876831 
	C481.412048,580.287231 481.493225,563.565613 493.507446,551.498169 
M517.724854,592.384583 
	C529.345581,586.767212 534.128906,574.861816 529.592651,562.846802 
	C523.642761,547.087646 505.908539,542.859924 495.795044,554.789673 
	C487.785797,564.237244 488.527069,579.577332 497.616638,587.926392 
	C503.148834,593.007874 509.394623,596.119690 517.724854,592.384583 
z"/>
<path fill="#E4E4E4" opacity="1.000000" stroke="none" 
	d="
M266.149414,593.038330 
	C267.980255,591.422791 269.389618,589.873291 271.034851,588.064453 
	C271.034851,590.650330 271.034851,593.188293 271.034851,596.116577 
	C261.077545,596.116577 251.180878,596.116577 242.212173,596.116577 
	C242.422546,587.897400 242.793823,579.611938 242.802002,571.325989 
	C242.810181,563.018616 242.456070,554.710815 242.254822,546.150146 
	C250.233078,546.150146 259.620667,546.150146 269.225159,546.150146 
	C269.225159,548.312378 269.225159,550.368286 269.225159,552.783508 
	C263.236847,545.444641 255.433228,550.474670 248.415131,548.335449 
	C248.415131,554.955383 248.415131,561.018005 248.415131,567.671753 
	C253.989868,567.235535 259.923096,569.933838 265.478333,565.190918 
	C265.478333,568.127014 265.478333,570.844482 265.478333,573.709656 
	C260.539398,568.143555 254.221863,571.699707 248.288025,570.528687 
	C248.288025,578.300598 248.288025,585.556519 248.288025,593.104309 
	C254.185501,593.104309 259.956726,593.104309 266.149414,593.038330 
z"/>
<path fill="#E2E2E2" opacity="1.000000" stroke="none" 
	d="
M298.601257,567.633667 
	C299.953705,566.756226 300.902344,566.023743 302.251770,564.981750 
	C302.251770,568.195740 302.251770,570.921814 302.251770,574.108032 
	C297.443848,567.881653 291.132111,571.956238 285.353271,570.364502 
	C285.353271,578.205933 285.353271,585.575012 285.353271,593.649353 
	C292.767609,591.231018 301.701324,597.652405 307.774658,587.980591 
	C307.774658,591.047913 307.774658,593.570984 307.774658,596.253174 
	C297.645752,596.253174 287.742493,596.253174 278.622070,596.253174 
	C280.078217,579.531372 279.638824,563.064148 278.958282,546.220581 
	C286.848724,546.220581 296.072479,546.220581 305.675598,546.220581 
	C305.675598,548.141663 305.675598,550.308777 305.675598,552.331177 
	C299.945129,545.550903 292.181946,550.373840 285.213257,548.442871 
	C285.213257,555.162476 285.213257,561.237915 285.213257,567.778625 
	C289.645233,567.778625 293.921356,567.778625 298.601257,567.633667 
z"/>
<path fill="#E2E2E2" opacity="1.000000" stroke="none" 
	d="
M167.083221,552.389221 
	C163.229523,547.489685 154.241272,546.462646 149.964828,550.100281 
	C145.388306,553.993103 145.740967,561.028137 151.067200,564.050781 
	C155.673538,566.664978 160.799576,568.348022 165.496048,570.822083 
	C173.955261,575.278259 175.502121,585.423523 168.972153,592.279663 
	C164.891724,596.563904 156.763702,598.202332 151.130692,596.051880 
	C148.688828,595.119812 146.107635,594.552673 144.386765,594.051819 
	C149.074127,593.667480 154.647354,593.539490 160.097244,592.653137 
	C164.018478,592.015381 166.397614,589.064087 167.047897,585.064819 
	C167.703537,581.032532 166.303726,577.698792 162.700287,575.767822 
	C158.755051,573.653687 154.621628,571.877991 150.515472,570.079834 
	C143.173798,566.864807 140.239029,562.493652 141.217178,555.998291 
	C142.089752,550.203918 147.309967,545.537537 154.434799,545.183777 
	C158.998276,544.957092 163.619247,545.888123 169.083862,546.378174 
	C168.598434,549.301575 168.222809,551.563721 167.847168,553.825867 
	C167.721069,553.764954 167.529419,553.735962 167.481262,553.637085 
	C167.341339,553.349854 167.258942,553.034546 167.083221,552.389221 
z"/>
<path fill="#E2E2E2" opacity="1.000000" stroke="none" 
	d="
M330.828552,562.004639 
	C330.828339,568.169312 330.745300,573.835876 330.852081,579.498779 
	C330.955719,584.995239 331.254211,590.488098 331.477051,596.238770 
	C329.428253,596.238770 326.370789,596.238770 323.803375,596.238770 
	C324.240631,593.285950 324.990662,590.466919 325.019409,587.640564 
	C325.149780,574.842224 325.076447,562.041870 325.076447,549.282776 
	C315.234009,548.117920 314.626007,548.318970 310.850647,554.394104 
	C310.850647,551.365417 310.850647,549.003479 310.850647,546.194580 
	C321.937988,546.194580 333.154724,546.194580 344.711884,546.194580 
	C344.711884,548.388550 344.711884,550.802673 344.711884,554.071411 
	C341.931549,546.512390 336.145630,549.356506 330.828796,548.708557 
	C330.828796,553.254883 330.828796,557.379883 330.828552,562.004639 
z"/>
<path fill="#E3E3E3" opacity="1.000000" stroke="none" 
	d="
M406.503540,623.559326 
	C402.924469,626.227173 400.124969,629.377930 399.815186,634.468018 
	C399.668365,635.050415 399.649078,635.314758 399.629730,635.579163 
	C399.803619,635.315125 399.977570,635.051147 400.151550,634.787170 
	C400.248138,634.500183 400.440033,634.308655 401.179382,634.273438 
	C401.459412,635.162659 401.568359,636.414368 401.067169,636.746948 
	C398.736908,638.294006 398.299042,639.869080 400.422150,641.877747 
	C400.633301,644.276428 400.844482,646.675049 400.985168,649.911499 
	C400.608795,655.240601 403.547668,652.969299 405.423950,652.912720 
	C403.967102,653.975586 402.510254,655.038452 401.053406,656.101318 
	C400.252533,654.606140 399.124695,653.192383 398.727448,651.596680 
	C398.133942,649.212708 398.054749,646.700562 397.638214,643.265259 
	C396.427307,646.145325 395.539795,648.256165 394.652283,650.367065 
	C394.251892,650.371155 393.851532,650.375244 393.451141,650.379395 
	C393.252014,649.322754 393.052887,648.266052 393.123169,646.701782 
	C392.599762,645.472046 391.806915,644.749878 391.014069,644.027771 
	C394.162292,636.706970 397.270569,629.368469 400.485443,622.077087 
	C401.341919,620.134583 402.525177,618.336121 404.148621,616.256714 
	C405.335205,615.855225 405.931610,615.668518 407.434021,615.198242 
	C405.946564,618.139587 404.799500,620.407837 403.502747,622.835266 
	C403.663910,623.097046 403.974731,623.199646 404.544067,623.161499 
	C405.369568,623.200195 405.936554,623.379761 406.503540,623.559326 
z"/>
<path fill="#D9D9D9" opacity="1.000000" stroke="none" 
	d="
M307.968719,644.630859 
	C307.157410,647.168884 306.346130,649.706848 305.318420,652.921875 
	C304.831421,652.363586 303.062347,651.253174 303.134491,650.279114 
	C304.026031,638.243652 307.127960,626.695435 311.322845,615.366760 
	C313.558350,621.324097 309.894653,626.588074 309.781372,632.614014 
	C309.965271,633.016724 309.962738,632.938049 309.620789,632.937439 
	C308.856018,633.949707 308.433228,634.962646 307.989380,636.295166 
	C307.968475,639.286865 307.968597,641.958862 307.968719,644.630859 
z"/>
<path fill="#DEDEDE" opacity="1.000000" stroke="none" 
	d="
M391.652496,631.739990 
	C390.261444,636.738037 388.870392,641.736023 387.237244,647.507324 
	C386.919159,648.571533 386.843170,648.862366 386.767181,649.153137 
	C386.159851,648.869507 385.552521,648.585876 384.858276,647.622925 
	C384.478241,639.960144 383.795837,639.059326 379.128845,639.911316 
	C379.763000,641.296875 380.369446,642.621948 380.975891,643.947083 
	C379.501740,644.020142 378.027588,644.093201 376.311829,643.539673 
	C375.328186,642.205383 374.586212,641.497742 373.844177,640.790039 
	C375.864868,638.198608 377.885559,635.607178 380.543823,632.992249 
	C381.311981,634.485291 381.442505,636.001892 381.573547,637.524170 
	C385.185425,637.767578 385.185425,637.767578 385.986053,634.060425 
	C387.417755,632.621582 388.849426,631.182678 390.753784,630.301147 
	C391.368439,631.152344 391.510468,631.446167 391.652496,631.739990 
z"/>
<path fill="#CFCFCF" opacity="1.000000" stroke="none" 
	d="
M405.652100,652.709473 
	C403.547668,652.969299 400.608795,655.240601 400.960083,650.368286 
	C401.377075,650.696472 401.748657,651.405579 402.357147,652.566772 
	C406.363617,645.550598 410.205048,638.823486 414.756714,632.056519 
	C416.284119,632.006287 417.101288,631.995911 417.918427,631.985596 
	C418.034302,632.144409 418.150146,632.303162 417.786377,632.760620 
	C416.204498,635.372925 415.102234,637.686401 413.999939,639.999878 
	C413.728333,642.589966 413.456726,645.179993 413.595886,648.215942 
	C414.009918,649.142639 414.013214,649.623474 414.016541,650.104309 
	C412.692902,649.885681 411.369293,649.667114 409.994568,648.843872 
	C409.662415,647.606812 409.381348,646.974487 409.100281,646.342102 
	C408.730255,646.886230 408.360229,647.430359 407.990143,647.974426 
	C407.286835,649.484985 406.583557,650.995605 405.652100,652.709473 
z"/>
<path fill="#CFCFCF" opacity="1.000000" stroke="none" 
	d="
M364.550903,638.380005 
	C365.691742,635.466003 366.577148,632.414795 368.047668,629.677979 
	C369.427155,627.110596 371.910461,624.476013 374.725433,626.953796 
	C376.009918,628.084473 375.158264,631.642029 375.275482,634.098816 
	C374.632019,634.130249 373.988556,634.161621 373.345123,634.193054 
	C373.179901,632.888184 373.014679,631.583374 372.736938,629.389893 
	C368.607056,634.395630 368.027161,639.897705 366.950012,646.008545 
	C366.752045,647.248779 366.662537,647.730896 366.573059,648.212952 
	C363.534363,647.758423 363.534363,647.758423 364.112885,641.156616 
	C364.505615,639.781555 364.528259,639.080750 364.550903,638.380005 
z"/>
<path fill="#C7C7C7" opacity="1.000000" stroke="none" 
	d="
M308.329834,644.739258 
	C307.968597,641.958862 307.968475,639.286865 308.375702,636.568115 
	C309.176300,635.326965 309.569519,634.132507 309.962738,632.938049 
	C309.962738,632.938049 309.965271,633.016724 309.926453,633.008728 
	C311.955414,631.643494 314.023193,630.286194 316.090942,628.928894 
	C316.425568,629.305115 316.760162,629.681396 317.094757,630.057617 
	C316.393463,631.210632 315.692169,632.363647 314.966492,633.898926 
	C314.942078,634.281189 315.033051,634.431641 314.681427,634.656006 
	C314.200409,638.590210 314.071014,642.299927 313.956848,646.347778 
	C313.984039,647.134460 313.996033,647.583130 314.008026,648.031738 
	C312.235687,646.970398 310.463348,645.909058 308.329834,644.739258 
z"/>
<path fill="#E5E5E5" opacity="1.000000" stroke="none" 
	d="
M329.100250,648.371399 
	C328.065460,649.473145 327.030670,650.574829 325.995880,651.676575 
	C325.249481,650.370178 323.938080,649.094299 323.865601,647.751526 
	C323.670013,644.129578 324.002258,640.479248 324.360413,636.189331 
	C324.729767,634.690979 324.863800,633.843506 324.997803,632.995972 
	C325.420044,632.071777 325.842316,631.147522 326.264557,630.223328 
	C326.750366,630.294556 327.236176,630.365845 327.721985,630.437073 
	C327.467346,635.357422 327.212708,640.277771 326.909271,645.958008 
	C327.245972,647.153320 327.631439,647.588745 328.277893,648.141663 
	C328.726013,648.296631 328.913147,648.334045 329.100250,648.371399 
z"/>
<path fill="#DEDEDE" opacity="1.000000" stroke="none" 
	d="
M337.782501,646.039612 
	C337.902344,646.193787 338.022217,646.347961 337.728333,646.832886 
	C337.574921,647.424866 337.835205,647.686096 338.095490,647.947327 
	C339.133301,647.783142 340.171082,647.618896 341.208893,647.454712 
	C341.338928,647.968872 341.468964,648.482971 341.598999,648.997131 
	C339.581146,649.545837 337.563324,650.094543 335.376709,650.689209 
	C333.661682,643.365234 335.166779,637.529663 339.902405,632.151245 
	C340.325989,634.594299 340.123779,637.160583 339.921600,639.726929 
	C339.355743,641.272766 338.789886,642.818542 337.777618,644.723816 
	C337.255219,645.221375 337.085052,645.446655 337.118835,645.483215 
	C337.313293,645.693420 337.556091,645.858948 337.782501,646.039612 
z"/>
<path fill="#B7B7B7" opacity="1.000000" stroke="none" 
	d="
M324.557251,633.230957 
	C324.863800,633.843506 324.729767,634.690979 324.351471,635.754761 
	C322.344879,635.970947 320.582550,635.970947 319.077637,635.970947 
	C319.077637,638.660400 319.077637,641.000244 318.885956,643.857178 
	C318.108856,644.627319 317.523438,644.880493 316.894775,644.704102 
	C316.245392,640.993591 315.639221,637.712585 315.033051,634.431641 
	C315.033051,634.431641 314.942078,634.281189 314.909210,634.296875 
	C317.956451,634.030273 321.036560,633.748047 324.557251,633.230957 
z"/>
<path fill="#B7B7B7" opacity="1.000000" stroke="none" 
	d="
M400.779755,641.830872 
	C398.299042,639.869080 398.736908,638.294006 401.067169,636.746948 
	C401.568359,636.414368 401.459412,635.162659 401.373566,634.195435 
	C402.890686,633.462524 404.665802,632.868530 406.440887,632.274536 
	C406.126770,634.147644 406.253357,636.269043 405.376648,637.825134 
	C404.471893,639.431152 402.591095,640.487305 400.779755,641.830872 
z"/>
<path fill="#BDBDBD" opacity="1.000000" stroke="none" 
	d="
M328.906433,643.949951 
	C330.459473,639.020142 332.012512,634.090393 333.565552,629.160583 
	C334.245636,629.348938 334.925690,629.537292 335.605774,629.725708 
	C335.381134,635.124268 332.554352,639.939331 330.472656,644.977356 
	C329.666229,644.608337 329.286316,644.279175 328.906433,643.949951 
z"/>
<path fill="#BDBDBD" opacity="1.000000" stroke="none" 
	d="
M414.355103,650.044189 
	C414.013214,649.623474 414.009918,649.142639 413.995911,648.301331 
	C417.371002,643.248840 420.756775,638.556824 424.142578,633.864868 
	C424.506378,634.119751 424.870178,634.374695 425.233978,634.629639 
	C422.850830,640.462891 419.110931,645.437744 414.355103,650.044189 
z"/>
<path fill="#ADADAD" opacity="1.000000" stroke="none" 
	d="
M403.652466,622.676086 
	C404.799500,620.407837 405.946564,618.139587 407.434021,615.198242 
	C405.931610,615.668518 405.335205,615.855225 404.420166,616.047241 
	C406.057007,615.581970 408.012482,615.111389 409.967896,614.640747 
	C409.616760,616.719360 409.265594,618.797913 408.479309,620.862671 
	C407.953430,620.738586 407.862610,620.628418 407.771790,620.518250 
	C407.917664,620.796692 408.063538,621.075073 408.209412,621.353516 
	C407.817017,622.003052 407.424622,622.652527 406.767883,623.430664 
	C405.936554,623.379761 405.369568,623.200195 404.387695,623.003052 
	C403.972778,622.985352 403.652466,622.676086 403.652466,622.676086 
z"/>
<path fill="#ADADAD" opacity="1.000000" stroke="none" 
	d="
M340.266754,639.781311 
	C340.123779,637.160583 340.325989,634.594299 340.194885,631.980347 
	C341.653564,631.804382 343.445587,631.676086 345.237579,631.547852 
	C345.047516,633.171875 345.300751,635.052612 344.548798,636.351318 
	C343.715637,637.790161 341.963715,638.697083 340.266754,639.781311 
z"/>
<path fill="#B7B7B7" opacity="1.000000" stroke="none" 
	d="
M342.151276,645.037537 
	C344.558502,641.220581 346.965729,637.403687 349.372986,633.586792 
	C350.030823,633.982422 350.688629,634.378052 351.346466,634.773621 
	C349.017609,638.185608 346.688782,641.597534 343.660004,645.059326 
	C342.690491,645.085327 342.420898,645.061401 342.151276,645.037537 
z"/>
<path fill="#131313" opacity="1.000000" stroke="none" 
	d="
M316.938019,645.133667 
	C317.523438,644.880493 318.108856,644.627319 319.004028,644.235779 
	C319.175415,646.528625 319.037018,648.959961 318.851807,652.214050 
	C316.791565,650.706238 315.439484,649.716675 314.047729,648.379395 
	C313.996033,647.583130 313.984039,647.134460 314.282349,646.328979 
	C315.374451,645.692566 316.156250,645.413086 316.938019,645.133667 
z"/>
<path fill="#ADADAD" opacity="1.000000" stroke="none" 
	d="
M366.636871,648.231140 
	C366.662537,647.730896 366.752045,647.248779 366.910461,646.403564 
	C369.069031,644.404236 371.158630,642.768005 373.546234,640.960938 
	C374.586212,641.497742 375.328186,642.205383 376.096619,643.232300 
	C373.716217,645.454163 371.309387,647.356750 368.393402,649.007385 
	C367.519592,648.554077 367.154938,648.352783 366.790283,648.151489 
	C366.790283,648.151489 366.700684,648.249329 366.636871,648.231140 
z"/>
<path fill="#C7C7C7" opacity="1.000000" stroke="none" 
	d="
M385.924805,633.752808 
	C385.185425,637.767578 385.185425,637.767578 381.573547,637.524170 
	C381.442505,636.001892 381.311981,634.485291 380.840179,632.869507 
	C382.287170,632.995178 384.075378,633.220154 385.924805,633.752808 
z"/>
<path fill="#C7C7C7" opacity="1.000000" stroke="none" 
	d="
M381.387756,643.759399 
	C380.369446,642.621948 379.763000,641.296875 379.128845,639.911316 
	C383.795837,639.059326 384.478241,639.960144 384.691559,647.317627 
	C383.674316,646.318420 382.736938,644.945068 381.387756,643.759399 
z"/>
<path fill="#BDBDBD" opacity="1.000000" stroke="none" 
	d="
M414.375244,639.934814 
	C415.102234,637.686401 416.204498,635.372925 417.671692,633.032227 
	C418.271027,635.929810 418.761627,638.977173 414.375244,639.934814 
z"/>
<path fill="#C7C7C7" opacity="1.000000" stroke="none" 
	d="
M390.742126,644.180542 
	C391.806915,644.749878 392.599762,645.472046 393.257446,646.384644 
	C392.604553,646.621948 392.086853,646.668762 390.608032,646.843628 
	C389.289734,646.909668 388.932526,646.847534 388.575317,646.785400 
	C389.206940,645.968018 389.838531,645.150635 390.742126,644.180542 
z"/>
<path fill="#BDBDBD" opacity="1.000000" stroke="none" 
	d="
M418.044098,631.790405 
	C417.101288,631.995911 416.284119,632.006287 415.062256,631.939148 
	C415.828278,631.772888 416.999023,631.684021 418.044098,631.790405 
z"/>
<path fill="#E5E5E5" opacity="1.000000" stroke="none" 
	d="
M328.714233,644.178406 
	C329.286316,644.279175 329.666229,644.608337 330.250488,645.262756 
	C330.158844,646.428833 329.862915,647.269775 329.333618,648.241028 
	C328.913147,648.334045 328.726013,648.296631 328.308655,647.825684 
	C328.071442,646.971436 328.064514,646.550659 328.057587,646.129883 
	C328.212402,645.555542 328.367218,644.981201 328.714233,644.178406 
z"/>
<path fill="#BDBDBD" opacity="1.000000" stroke="none" 
	d="
M408.339172,647.946716 
	C408.360229,647.430359 408.730255,646.886230 409.100281,646.342102 
	C409.381348,646.974487 409.662415,647.606812 409.865540,648.510132 
	C409.421143,648.493652 409.054688,648.206360 408.339172,647.946716 
z"/>
<path fill="#C7C7C7" opacity="1.000000" stroke="none" 
	d="
M391.783630,631.578613 
	C391.510468,631.446167 391.368439,631.152344 391.102875,630.384888 
	C391.291168,630.413208 391.602966,630.915161 391.783630,631.578613 
z"/>
<path fill="#ADADAD" opacity="1.000000" stroke="none" 
	d="
M364.372620,638.545532 
	C364.528259,639.080750 364.505615,639.781555 364.232971,640.743469 
	C364.053406,640.240112 364.123871,639.475525 364.372620,638.545532 
z"/>
<path fill="#DEDEDE" opacity="1.000000" stroke="none" 
	d="
M341.829193,645.395813 
	C342.420898,645.061401 342.690491,645.085327 343.365906,645.161987 
	C343.203003,645.905762 342.634308,646.596802 342.065552,647.287842 
	C341.879395,646.776611 341.693237,646.265320 341.829193,645.395813 
z"/>
<path fill="#BDBDBD" opacity="1.000000" stroke="none" 
	d="
M327.776825,646.277100 
	C328.064514,646.550659 328.071442,646.971436 328.047668,647.708191 
	C327.631439,647.588745 327.245972,647.153320 326.906921,646.407104 
	C327.134247,646.205627 327.315155,646.314941 327.776825,646.277100 
z"/>
<path fill="#DEDEDE" opacity="1.000000" stroke="none" 
	d="
M388.301880,646.742432 
	C388.932526,646.847534 389.289734,646.909668 390.182373,647.070557 
	C390.191101,647.761169 389.664459,648.353027 388.529846,648.560303 
	C387.719666,647.918030 387.517456,647.660217 387.315247,647.402405 
	C387.552979,647.168091 387.790680,646.933777 388.301880,646.742432 
z"/>
<path fill="#ADADAD" opacity="1.000000" stroke="none" 
	d="
M337.758240,645.770081 
	C337.556091,645.858948 337.313293,645.693420 337.118835,645.483215 
	C337.085052,645.446655 337.255219,645.221375 337.559723,645.022583 
	C337.770172,645.141479 337.752106,645.321045 337.758240,645.770081 
z"/>
<path fill="#ADADAD" opacity="1.000000" stroke="none" 
	d="
M338.011047,647.704773 
	C337.835205,647.686096 337.574921,647.424866 337.550720,647.065796 
	C337.833405,647.132690 337.880035,647.297485 338.011047,647.704773 
z"/>
<path fill="#CFCFCF" opacity="1.000000" stroke="none" 
	d="
M366.702026,648.586426 
	C367.154938,648.352783 367.519592,648.554077 368.040588,649.035034 
	C367.669189,649.216919 367.141479,649.119141 366.702026,648.586426 
z"/>
<path fill="#DEDEDE" opacity="1.000000" stroke="none" 
	d="
M388.130341,648.620850 
	C387.935913,649.178711 387.533020,649.291626 386.948669,649.278809 
	C386.843170,648.862366 386.919159,648.571533 387.100952,647.843750 
	C387.206757,647.406921 387.267853,647.552673 387.291565,647.477539 
	C387.517456,647.660217 387.719666,647.918030 388.130341,648.620850 
z"/>
<path fill="#000000" opacity="1.000000" stroke="none" 
	d="
M286.448700,331.741333 
	C286.377167,333.416260 286.042511,334.701782 285.707855,335.987305 
	C285.514954,335.947021 285.322021,335.906738 285.129120,335.866455 
	C285.129120,334.333252 285.129120,332.800018 285.362000,330.943817 
	C285.791809,330.864532 285.988708,331.108246 286.448700,331.741333 
z"/>
<path fill="#000000" opacity="1.000000" stroke="none" 
	d="
M351.650208,261.047607 
	C351.802765,260.312012 352.140411,260.032593 352.478058,259.753204 
	C352.611694,260.484253 352.745361,261.215302 352.617004,262.143158 
	C352.181702,262.061249 352.008453,261.782501 351.650208,261.047607 
z"/>
<path fill="#050505" opacity="1.000000" stroke="none" 
	d="
M433.962036,562.405762 
	C438.536530,551.337158 447.131439,546.125610 456.645050,548.338257 
	C466.040955,550.523560 473.859039,561.771790 473.506561,572.275146 
	C473.214081,580.991394 468.989594,587.375977 462.040222,592.102478 
	C456.997650,595.532043 448.095062,594.311462 442.012268,589.697632 
	C434.113922,583.706726 431.055756,573.641846 433.962036,562.405762 
z"/>
<path fill="#060606" opacity="1.000000" stroke="none" 
	d="
M517.432617,592.630615 
	C509.394623,596.119690 503.148834,593.007874 497.616638,587.926392 
	C488.527069,579.577332 487.785797,564.237244 495.795044,554.789673 
	C505.908539,542.859924 523.642761,547.087646 529.592651,562.846802 
	C534.128906,574.861816 529.345581,586.767212 517.432617,592.630615 
z"/>
<path fill="#ADADAD" opacity="1.000000" stroke="none" 
	d="
M404.129150,623.143799 
	C403.974731,623.199646 403.663910,623.097046 403.502747,622.835266 
	C403.652466,622.676086 403.972778,622.985352 404.129150,623.143799 
z"/>
<path fill="#B7B7B7" opacity="1.000000" stroke="none" 
	d="
M400.104431,634.836914 
	C399.977570,635.051147 399.803619,635.315125 399.629730,635.579163 
	C399.649078,635.314758 399.668365,635.050415 399.940613,634.829712 
	C400.193542,634.873413 400.057312,634.886719 400.104431,634.836914 
z"/>
<path fill="#000000" opacity="1.000000" stroke="none" 
	d="
M309.620789,632.937439 
	C309.569519,634.132507 309.176300,635.326965 308.396790,636.248474 
	C308.433228,634.962646 308.856018,633.949707 309.620789,632.937439 
z"/>
<path fill="#000000" opacity="1.000000" stroke="none" 
	d="
M316.894775,644.704102 
	C316.156250,645.413086 315.374451,645.692566 314.267151,645.990845 
	C314.071014,642.299927 314.200409,638.590210 314.681427,634.656006 
	C315.639221,637.712585 316.245392,640.993591 316.894775,644.704102 
z"/>
<path fill="#E3E3E3" opacity="1.000000" stroke="none" 
	d="
M408.229919,621.309692 
	C408.063538,621.075073 407.917664,620.796692 407.771790,620.518250 
	C407.862610,620.628418 407.953430,620.738586 408.179901,621.021484 
	C408.315582,621.194275 408.250458,621.265869 408.229919,621.309692 
z"/>
</svg>